mtllib thigh_l.mtl
usemtl thigh_l
v -0.07870 -0.06726 0.15183
v -0.07819 -0.03583 0.15828
v -0.06450 0.00111 0.16307
v -0.05417 0.02746 0.15972
v 0.10295 -0.02874 0.18307
v 0.08181 0.00366 0.18474
v 0.03260 0.03186 0.17391
v -0.01038 0.04054 0.15951
v -0.00131 0.05463 0.11951
v 0.04081 0.04215 0.13850
v -0.05772 0.03406 0.11552
v 0.11608 -0.09535 0.14880
v 0.12644 -0.05873 0.13704
v 0.12669 -0.13172 0.13541
v 0.09361 0.00913 0.14876
v 0.11798 -0.02580 0.14470
v -0.06802 0.00225 0.11805
v -0.08291 -0.03350 0.11810
v -0.08342 -0.06568 0.11857
v -0.08582 -0.09187 0.11424
v -0.10481 -0.08435 0.04871
v -0.09974 -0.05829 0.05068
v -0.09657 -0.02624 0.06538
v -0.07729 0.00616 0.06965
v -0.06721 0.03452 0.07044
v 0.12513 -0.01884 0.08467
v 0.13168 -0.05464 0.07483
v 0.13188 -0.13364 0.07368
v 0.10056 0.01363 0.08287
v 0.03885 0.04635 0.07617
v 0.13410 -0.09544 0.07070
v -0.00483 0.05928 0.06632
v 0.03512 0.03712 0.07490
v -0.00407 0.04609 0.06379
v -0.05817 0.02489 0.06633
v 0.11322 -0.05663 0.07711
v 0.11727 -0.09513 0.07280
v 0.08494 0.00490 0.08304
v 0.10543 -0.02442 0.08583
v -0.07305 0.00577 0.06923
v -0.09313 -0.02571 0.06654
v -0.09769 -0.05673 0.05389
v -0.09760 -0.13097 0.05264
v -0.09141 -0.08364 0.04729
v -0.03489 0.03799 -0.40718
v -0.06095 0.00425 -0.40487
v -0.04006 -0.04549 -0.40992
v 0.02437 -0.06962 -0.40040
v 0.08243 -0.03743 -0.40869
v 0.09316 0.01942 -0.40707
v 0.05789 0.03907 -0.40853
v 0.01832 0.03866 -0.41212
v 0.01406 0.06113 -0.01636
v -0.06965 0.05350 -0.03230
v 0.07305 0.04558 -0.01772
v 0.10899 -0.00976 -0.05436
v 0.08188 -0.07541 -0.07590
v 0.01573 -0.10021 -0.09984
v -0.08233 -0.08272 -0.08771
v -0.11802 -0.02041 -0.06877
v -0.12256 -0.02921 0.00810
v -0.12261 -0.15619 0.00605
v -0.06438 0.04083 0.02904
v -0.09882 -0.07886 -0.06183
v -0.09984 -0.10633 -0.06172
v 0.01124 -0.10015 -0.08644
v 0.07737 -0.07147 -0.05121
v 0.07752 -0.11328 -0.05186
v 0.10420 -0.01098 -0.00396
v 0.10426 -0.17550 -0.00641
v 0.07225 0.03707 0.02673
v 0.01060 0.05700 0.03105
v 0.00936 0.03965 0.10563
v -0.05013 0.02131 0.10155
v 0.07110 0.02023 0.10704
v 0.12326 -0.09516 -0.01463
v 0.02020 -0.09150 -0.07541
v -0.09856 -0.10022 -0.04143
v -0.07771 -0.03282 0.09725
v -0.07780 -0.15591 0.09505
v 0.02358 0.07451 -0.13490
v -0.04059 0.06223 -0.14151
v 0.07712 0.06949 -0.13332
v 0.12199 -0.00770 -0.15533
v 0.09098 -0.06550 -0.17170
v 0.03182 -0.08454 -0.17195
v -0.03648 -0.07896 -0.17286
v -0.06754 -0.00358 -0.16129
v 0.12849 -0.09579 0.02806
v -0.10263 -0.08591 0.01386
v 0.00605 0.05049 0.06693
v -0.06227 0.02997 0.07169
v 0.07079 0.03122 0.06823
v 0.11466 -0.02720 0.05831
v 0.11472 -0.16089 0.05586
v -0.09998 -0.02926 0.06104
v -0.10160 -0.08674 0.05247
v -0.07949 -0.09378 0.08836
v 0.12836 -0.09504 0.05535
v 0.12774 -0.09398 0.07974
v 0.10893 -0.03454 0.08419
v 0.02499 0.07073 -0.07975
v -0.05385 0.05726 -0.09196
v 0.08458 0.05705 -0.07993
v 0.12172 -0.00892 -0.10868
v 0.09211 -0.07092 -0.12809
v 0.03111 -0.09024 -0.13700
v -0.05765 -0.07938 -0.12844
v -0.09036 -0.00754 -0.11031
v 0.01667 0.05991 -0.25595
v -0.03574 0.05186 -0.25774
v 0.06965 0.05709 -0.25884
v 0.10732 0.00131 -0.27131
v 0.08420 -0.05709 -0.27812
v 0.01929 -0.07788 -0.27395
v -0.03450 -0.06774 -0.27837
v -0.06411 -0.00872 -0.27078
v -0.06946 0.00488 -0.43003
v -0.04896 -0.04311 -0.43071
v 0.01574 -0.06747 -0.42376
v 0.08410 0.01808 -0.42891
v 0.01152 0.04333 -0.43307
v 0.02090 0.04210 -0.38794
v -0.03207 0.04475 -0.38081
v 0.06135 0.04470 -0.37441
v 0.09621 0.01708 -0.38090
v 0.08272 -0.04103 -0.38434
v 0.02315 -0.07169 -0.37771
v -0.04137 -0.04575 -0.39059
v -0.06148 -0.00061 -0.37724
v 0.06669 0.01912 0.10568
v 0.10229 -0.03137 0.08622
v 0.10229 -0.15796 0.08401
v 0.11753 -0.09472 0.08129
v -0.06903 -0.03033 0.09626
v -0.07114 -0.09474 0.09036
v -0.04110 0.01636 0.09900
v 0.00989 0.03533 0.10477
vn -0.9898 0.0176 0.1412
vn -0.9154 0.3812 0.1295
vn -0.9462 0.3130 0.0820
vn -0.3480 0.9227 0.1659
vn 0.9167 0.1494 0.3705
vn 0.7901 0.5120 0.3370
vn 0.4489 0.8248 0.3437
vn 0.1158 0.9283 0.3532
vn -0.0109 0.9998 -0.0139
vn 0.4197 0.9075 0.0203
vn -0.5263 0.8399 -0.1327
vn 0.9829 -0.0833 0.1639
vn 0.9980 0.0638 -0.0011
vn 0.9552 0.1975 0.2202
vn 0.6946 0.7189 0.0257
vn 0.9214 0.3849 0.0533
vn -0.9282 0.3661 -0.0669
vn -0.9563 0.2778 0.0916
vn -0.9992 0.0385 -0.0104
vn -0.9829 0.1206 0.1391
vn -0.9477 0.1622 -0.2749
vn -0.9714 0.0706 0.2269
vn -0.9626 0.1743 0.2076
vn -0.9055 0.4055 0.1253
vn -0.6999 0.6936 -0.1702
vn 0.8543 0.4987 -0.1462
vn 0.9633 0.1817 -0.1974
vn -0.1246 -0.0697 -0.9898
vn 0.5783 0.8047 -0.1341
vn 0.3815 0.9094 -0.1657
vn 0.9995 0.0170 0.0259
vn -0.1659 0.9786 -0.1219
vn 0.2455 0.0994 -0.9643
vn -0.0280 0.2179 -0.9756
vn -0.1914 0.2017 -0.9606
vn -0.1335 0.1878 -0.9731
vn -0.1267 0.0432 -0.9910
vn 0.0829 -0.0566 -0.9950
vn -0.0450 0.0248 -0.9987
vn 0.0433 0.0179 -0.9989
vn 0.4775 0.1450 -0.8666
vn 0.2409 0.1610 -0.9571
vn -0.0998 -0.0990 -0.9901
vn -0.1063 0.0166 -0.9942
vn -0.4149 0.9095 0.0271
vn -0.9734 0.2017 0.1086
vn -0.7250 -0.6877 0.0372
vn 0.0714 -0.9923 -0.1010
vn 0.7595 -0.6132 -0.2170
vn 0.9276 0.3189 -0.1945
vn 0.2552 0.9590 -0.1232
vn -0.0054 0.9978 -0.0661
vn 0.0419 0.9909 0.1282
vn -0.5501 0.8347 0.0275
vn 0.6284 0.7538 0.1920
vn 0.9863 -0.0073 0.1649
vn 0.7019 -0.7050 0.1017
vn 0.0561 -0.9837 -0.1709
vn -0.4254 -0.8520 -0.3053
vn -0.9456 0.1303 -0.2979
vn -0.9676 0.2256 0.1133
vn -0.9574 0.2800 -0.0712
vn -0.5566 0.8009 0.2207
vn -0.7085 -0.6657 -0.2342
vn -0.1489 0.9494 -0.2766
vn 0.0234 -0.9731 0.2292
vn 0.8819 -0.1746 -0.4380
vn 0.6675 -0.2303 -0.7081
vn 0.9770 0.1823 -0.1110
vn 0.9552 -0.2957 0.0124
vn 0.6806 0.7247 0.1072
vn 0.0136 0.9851 0.1715
vn -0.0046 0.8891 0.4577
vn -0.5288 0.6323 0.5662
vn 0.5652 0.7595 0.3220
vn 0.6911 0.0138 -0.7226
vn 0.2445 -0.2672 -0.9321
vn -0.9248 -0.0417 -0.3781
vn -0.7585 0.0540 0.6494
vn -0.7736 0.0470 0.6319
vn -0.0424 0.9990 -0.0129
vn -0.6270 0.7736 -0.0916
vn 0.5971 0.7992 -0.0690
vn 0.9894 0.1273 -0.0703
vn 0.6697 -0.7334 -0.1169
vn 0.0940 -0.9908 -0.0977
vn -0.6129 -0.7690 -0.1814
vn -0.9886 -0.0274 -0.1481
vn 0.9514 0.0233 -0.3070
vn -0.9995 0.0009 -0.0325
vn 0.0084 0.9667 0.2559
vn -0.5911 0.7481 0.3016
vn 0.5380 0.8231 0.1819
vn 0.8994 0.4308 0.0739
vn 0.9787 -0.2024 0.0337
vn -0.8617 0.2426 0.4457
vn -0.9361 -0.0184 0.3512
vn -0.7804 -0.0105 0.6252
vn 0.9968 0.0735 -0.0318
vn 0.9169 0.0799 0.3910
vn 0.8274 0.2819 0.4858
vn 0.0130 0.9935 0.1135
vn -0.5633 0.8196 -0.1045
vn 0.6446 0.7523 0.1358
vn 0.9872 0.0151 0.1587
vn 0.6765 -0.7358 -0.0297
vn 0.0684 -0.9843 -0.1629
vn -0.5817 -0.7135 -0.3905
vn -0.8965 0.1916 -0.3996
vn -0.0502 0.9918 -0.1172
vn -0.5729 0.8159 -0.0776
vn 0.4689 0.8773 -0.1023
vn 0.9834 0.1498 -0.1024
vn 0.7055 -0.7009 -0.1044
vn 0.0953 -0.9923 -0.0791
vn -0.6743 -0.7343 -0.0787
vn -0.9991 0.0190 -0.0377
vn -0.7531 0.6000 0.2698
vn -0.8604 -0.3941 0.3233
vn 0.0664 -0.9911 -0.1156
vn 0.8796 0.2830 -0.3825
vn -0.0081 0.9755 0.2198
vn -0.0199 0.9935 -0.1120
vn -0.4618 0.8836 -0.0772
vn 0.3158 0.9403 -0.1270
vn 0.9754 0.2018 -0.0884
vn 0.7726 -0.6261 -0.1054
vn 0.0606 -0.9920 -0.1105
vn -0.7149 -0.6934 -0.0901
vn -0.9772 0.2098 -0.0313
vn 0.5819 0.7822 -0.2228
vn 0.8765 0.4420 -0.1907
vn 0.1500 0.0065 0.9887
vn 0.9988 0.0313 0.0375
vn -0.9395 0.2105 -0.2702
vn -0.9877 0.0738 0.1377
vn -0.6132 0.5184 -0.5960
vn 0.1090 0.7774 -0.6195
f 8//8 10//10 9//9
f 4//4 9//9 11//11
f 7//7 15//15 10//10
f 6//6 16//16 15//15
f 5//5 13//13 16//16
f 3//3 11//11 17//17
f 2//2 17//17 18//18
f 1//1 18//18 19//19
f 20//20 19//19 22//22
f 20//20 22//22 21//21
f 19//19 18//18 23//23
f 19//19 23//23 22//22
f 18//18 17//17 24//24
f 18//18 24//24 23//23
f 17//17 11//11 25//25
f 17//17 25//25 24//24
f 16//16 13//13 27//27
f 16//16 27//27 26//26
f 15//15 16//16 26//26
f 15//15 26//26 29//29
f 10//10 15//15 29//29
f 10//10 29//29 30//30
f 13//13 12//12 31//31
f 13//13 31//31 27//27
f 31//31 12//12 14//14
f 11//11 9//9 32//32
f 11//11 32//32 25//25
f 9//9 10//10 30//30
f 9//9 30//30 32//32
f 32//32 30//30 33//33
f 32//32 33//33 34//34
f 25//25 32//32 34//34
f 25//25 34//34 35//35
f 27//27 31//31 37//37
f 27//27 37//37 36//36
f 37//37 31//31 28//28
f 30//30 29//29 38//38
f 30//30 38//38 33//33
f 29//29 26//26 39//39
f 29//29 39//39 38//38
f 26//26 27//27 36//36
f 26//26 36//36 39//39
f 24//24 25//25 35//35
f 24//24 35//35 40//40
f 23//23 24//24 40//40
f 23//23 40//40 41//41
f 22//22 23//23 41//41
f 22//22 41//41 42//42
f 21//21 22//22 42//42
f 21//21 42//42 44//44
f 43//43 21//21 44//44
f 101//101 75//75 131//131
f 101//101 131//131 132//132
f 100//100 101//101 132//132
f 100//100 132//132 134//134
f 133//133 100//100 134//134
f 79//79 98//98 136//136
f 79//79 136//136 135//135
f 136//136 98//98 80//80
f 74//74 79//79 135//135
f 74//74 135//135 137//137
f 75//75 73//73 138//138
f 75//75 138//138 131//131
f 73//73 74//74 137//137
f 73//73 137//137 138//138
f 19//19 136//136 20//20
f 19//19 135//135 136//136
f 18//18 135//135 19//19
f 17//17 135//135 18//18
f 17//17 137//137 135//135
f 11//11 137//137 17//17
f 11//11 138//138 137//137
f 9//9 138//138 11//11
f 9//9 10//10 138//138
f 10//10 131//131 138//138
f 10//10 15//15 131//131
f 15//15 132//132 131//131
f 15//15 16//16 132//132
f 13//13 132//132 16//16
f 13//13 134//134 132//132
f 12//12 134//134 13//13
f 54//54 60//60 61//61
f 54//54 61//61 63//63
f 60//60 59//59 64//64
f 60//60 64//64 61//61
f 59//59 58//58 66//66
f 59//59 66//66 64//64
f 57//57 67//67 66//66
f 57//57 66//66 58//58
f 57//57 56//56 69//69
f 57//57 69//69 67//67
f 55//55 71//71 69//69
f 55//55 69//69 56//56
f 55//55 53//53 72//72
f 55//55 72//72 71//71
f 54//54 63//63 72//72
f 54//54 72//72 53//53
f 67//67 76//76 77//77
f 67//67 77//77 66//66
f 77//77 76//76 68//68
f 64//64 66//66 77//77
f 64//64 77//77 78//78
f 77//77 65//65 78//78
f 67//67 69//69 89//89
f 67//67 89//89 76//76
f 89//89 68//68 76//76
f 61//61 64//64 78//78
f 61//61 78//78 90//90
f 78//78 62//62 90//90
f 72//72 63//63 92//92
f 72//72 92//92 91//91
f 91//91 92//92 74//74
f 91//91 74//74 73//73
f 72//72 91//91 93//93
f 72//72 93//93 71//71
f 91//91 73//73 75//75
f 91//91 75//75 93//93
f 71//71 93//93 94//94
f 71//71 94//94 69//69
f 61//61 96//96 92//92
f 61//61 92//92 63//63
f 61//61 90//90 97//97
f 61//61 97//97 96//96
f 97//97 90//90 62//62
f 74//74 92//92 96//96
f 74//74 96//96 79//79
f 79//79 96//96 97//97
f 79//79 97//97 98//98
f 97//97 80//80 98//98
f 69//69 94//94 99//99
f 69//69 99//99 89//89
f 99//99 70//70 89//89
f 94//94 101//101 100//100
f 94//94 100//100 99//99
f 100//100 95//95 99//99
f 75//75 101//101 94//94
f 75//75 94//94 93//93
f 81//81 82//82 103//103
f 81//81 103//103 102//102
f 102//102 103//103 54//54
f 102//102 54//54 53//53
f 81//81 102//102 104//104
f 81//81 104//104 83//83
f 102//102 53//53 55//55
f 102//102 55//55 104//104
f 84//84 83//83 104//104
f 84//84 104//104 105//105
f 105//105 104//104 55//55
f 105//105 55//55 56//56
f 84//84 105//105 106//106
f 84//84 106//106 85//85
f 105//105 56//56 57//57
f 105//105 57//57 106//106
f 86//86 85//85 106//106
f 86//86 106//106 107//107
f 107//107 106//106 57//57
f 107//107 57//57 58//58
f 86//86 107//107 108//108
f 86//86 108//108 87//87
f 107//107 58//58 59//59
f 107//107 59//59 108//108
f 87//87 108//108 109//109
f 87//87 109//109 88//88
f 108//108 59//59 60//60
f 108//108 60//60 109//109
f 88//88 109//109 103//103
f 88//88 103//103 82//82
f 109//109 60//60 54//54
f 109//109 54//54 103//103
f 110//110 111//111 82//82
f 110//110 82//82 81//81
f 110//110 81//81 83//83
f 110//110 83//83 112//112
f 113//113 112//112 83//83
f 113//113 83//83 84//84
f 113//113 84//84 85//85
f 113//113 85//85 114//114
f 115//115 114//114 85//85
f 115//115 85//85 86//86
f 115//115 86//86 87//87
f 115//115 87//87 116//116
f 116//116 87//87 88//88
f 116//116 88//88 117//117
f 117//117 88//88 82//82
f 117//117 82//82 111//111
f 118//118 46//46 45//45
f 119//119 47//47 46//46
f 120//120 48//48 47//47
f 120//120 49//49 48//48
f 121//121 50//50 49//49
f 121//121 51//51 50//50
f 122//122 52//52 51//51
f 122//122 45//45 52//52
f 52//52 45//45 124//124
f 52//52 124//124 123//123
f 123//123 124//124 111//111
f 123//123 111//111 110//110
f 52//52 123//123 125//125
f 52//52 125//125 51//51
f 123//123 110//110 112//112
f 123//123 112//112 125//125
f 50//50 51//51 125//125
f 50//50 125//125 126//126
f 126//126 125//125 112//112
f 126//126 112//112 113//113
f 50//50 126//126 127//127
f 50//50 127//127 49//49
f 126//126 113//113 114//114
f 126//126 114//114 127//127
f 48//48 49//49 127//127
f 48//48 127//127 128//128
f 128//128 127//127 114//114
f 128//128 114//114 115//115
f 48//48 128//128 129//129
f 48//48 129//129 47//47
f 128//128 115//115 116//116
f 128//128 116//116 129//129
f 47//47 129//129 130//130
f 47//47 130//130 46//46
f 129//129 116//116 117//117
f 129//129 117//117 130//130
f 46//46 130//130 124//124
f 46//46 124//124 45//45
f 130//130 117//117 111//111
f 130//130 111//111 124//124
